# xmcd
#
# Track frame offsets:
#	150
#	13432
#	29197
#	40810
#	56122
#	68630
#	82182
#	93892
#	107420
#	119362
#	130352
#	144567
#	158872
#	176240
#	187107
#	197840
#	209640
#	224742
#
# Disc length: 3174 seconds
#
# Revision: 0
# Processed by: cddbd v1.4PL0 Copyright (c) Steve Scherf et al.
# Submitted via: audiograbber 1.81.02
#
DISCID=230c6412
DTITLE=Kenny Rogers - Superstar
DYEAR=2000
DGENRE=Country
TTITLE0=Rudy (Dont Tack Your Love To Town)
TTITLE1=Tulsa Turnaround
TTITLE2=Me And Bobby McGee
TTITLE3=For The Good Time
TTITLE4=Reuben James
TTITLE5=A Stranger In My Place
TTITLE6=Poem For A Little Laby
TTITLE7=Shine On Rudy Mountain
TTITLE8=Elvira
TTITLE9=Goodtime Liberator
TTITLE10=Loser
TTITLE11=It`s Raining In My Mind
TTITLE12=Something`s Burning
TTITLE13=Homemade Lies
TTITLE14=Ticket To Nowhere
TTITLE15=Girl Get A Hole Of Yourself
TTITLE16=Tell It All Brother
TTITLE17=Sleep Comes Easy
EXTD=
EXTT0=
EXTT1=
EXTT2=
EXTT3=
EXTT4=
EXTT5=
EXTT6=
EXTT7=
EXTT8=
EXTT9=
EXTT10=
EXTT11=
EXTT12=
EXTT13=
EXTT14=
EXTT15=
EXTT16=
EXTT17=
PLAYORDER=
